<svg version="1.2" baseProfile="tiny-ps" xmlns="http://www.w3.org/2000/svg" width="128" height="128"><style>.shp0{fill:#000}</style><g id="Folder 2"><g id="Folder 1"><path id="Shape 1" class="shp0" d="M26.6 59.8h-3.82V38.3c0-6.87 7.57-16.9 18.62-16.9 11.2 0 19.6.2 19.6.2v3.62S49 25 41.5 25c-6.82 0-14.7 6.68-14.7 13.2 0 1.28-.2 21.6-.2 21.6z"/><path id="Shape 1 copy" class="shp0" d="M101.6 59.8h3.82V38.3c0-6.87-6.37-16.9-17.42-16.9-11.2 0-27.24.2-27.24.2l-.16 3.62S82.08 25 87.9 25c6.82 0 13.5 6.68 13.5 13.2 0 1.28.2 21.6.2 21.6z"/><path id="Shape 1 copy 2" class="shp0" d="M26.42 59.4H22.6v30.1c0 6.87 7.57 16.9 18.62 16.9 11.2 0 19.6-.2 19.6-.2v-3.62s-12 .22-19.5.22c-6.82 0-14.7-6.68-14.7-13.2 0-1.28-.2-30.2-.2-30.2z"/><path id="Shape 1 copy 3" class="shp0" d="M101.42 59.6h3.82v29.9c0 6.87-6.36 16.9-17.42 16.9-11.2 0-27.24-.2-27.24-.2l-.16-3.62s21.48.22 27.3.22c6.83 0 13.5-6.68 13.5-13.2 0-1.28.2-30 .2-30z"/></g><path id="F5" class="shp0" d="M61.4 48.99v-3.96H43.61V83h4.72V65.92h11.71v-3.96H48.33V48.99H61.4zm22.73 25.44v-5.86c0-6.02-3.69-8.46-8.95-8.46h-1.69V49.1h9.82v-4.07H68.88v19.15h6.57c2.33 0 3.96 1.52 3.96 3.9v6.89c0 2.77-1.25 3.96-4.02 3.96h-7.05V83h6.56c6.51 0 9.23-2.6 9.23-8.57z"/></g></svg>