<svg version="1.2" baseProfile="tiny-ps" xmlns="http://www.w3.org/2000/svg" width="128" height="128"><style>.shp0{fill:#000}</style><g id="Folder 2"><g id="Folder 1"><path id="Shape 1" class="shp0" d="M26.6 59.8h-3.82V38.3c0-6.87 7.57-16.9 18.62-16.9 11.2 0 19.6.2 19.6.2v3.62S49 25 41.5 25c-6.82 0-14.7 6.68-14.7 13.2 0 1.28-.2 21.6-.2 21.6z"/><path id="Shape 1 copy" class="shp0" d="M101.6 59.8h3.82V38.3c0-6.87-6.37-16.9-17.42-16.9-11.2 0-27.24.2-27.24.2l-.16 3.62S82.08 25 87.9 25c6.82 0 13.5 6.68 13.5 13.2 0 1.28.2 21.6.2 21.6z"/><path id="Shape 1 copy 2" class="shp0" d="M26.42 59.4H22.6v30.1c0 6.87 7.57 16.9 18.62 16.9 11.2 0 19.6-.2 19.6-.2v-3.62s-12 .22-19.5.22c-6.82 0-14.7-6.68-14.7-13.2 0-1.28-.2-30.2-.2-30.2z"/><path id="Shape 1 copy 3" class="shp0" d="M101.42 59.6h3.82v29.9c0 6.87-6.36 16.9-17.42 16.9-11.2 0-27.24-.2-27.24-.2l-.16-3.62s21.48.22 27.3.22c6.83 0 13.5-6.68 13.5-13.2 0-1.28.2-30 .2-30z"/></g><path id="F5" fill-rule="evenodd" class="shp0" d="M48.33 48.99v12.97h11.71v3.96H48.33V83h-4.72V45.03H61.4v3.96H48.33zM77.24 83h-1.36c-4.61 0-8.57-3.04-8.57-9.22V54.25c0-6.18 3.42-9.22 9.66-9.22h6.23v4.13h-6.78c-2.71 0-4.5 1.89-4.5 4.06v5.92h4.77c6.13 0 9.12 2.49 9.12 8.67v5.97c0 6.18-3.96 9.22-8.57 9.22zm-5.32-19.8v11.61c0 2.17 1.52 4.12 4.23 4.12h.82c2.71 0 4.23-1.95 4.23-4.12v-8.03c0-2.17-1.25-3.58-3.96-3.58h-5.32z"/></g></svg>