<svg version="1.2" baseProfile="tiny-ps" xmlns="http://www.w3.org/2000/svg" width="128" height="128"><style>.shp0{fill:#000}</style><g id="Folder 2"><g id="Folder 1"><path id="Shape 1" class="shp0" d="M26.6 59.8h-3.82V38.3c0-6.87 7.57-16.9 18.62-16.9 11.2 0 19.6.2 19.6.2v3.62S49 25 41.5 25c-6.82 0-14.7 6.68-14.7 13.2 0 1.28-.2 21.6-.2 21.6z"/><path id="Shape 1 copy" class="shp0" d="M101.6 59.8h3.82V38.3c0-6.87-6.37-16.9-17.42-16.9-11.2 0-27.24.2-27.24.2l-.16 3.62S82.08 25 87.9 25c6.82 0 13.5 6.68 13.5 13.2 0 1.28.2 21.6.2 21.6z"/><path id="Shape 1 copy 2" class="shp0" d="M26.42 59.4H22.6v30.1c0 6.87 7.57 16.9 18.62 16.9 11.2 0 19.6-.2 19.6-.2v-3.62s-12 .22-19.5.22c-6.82 0-14.7-6.68-14.7-13.2 0-1.28-.2-30.2-.2-30.2z"/><path id="Shape 1 copy 3" class="shp0" d="M101.42 59.6h3.82v29.9c0 6.87-6.36 16.9-17.42 16.9-11.2 0-27.24-.2-27.24-.2l-.16-3.62s21.48.22 27.3.22c6.83 0 13.5-6.68 13.5-13.2 0-1.28.2-30 .2-30z"/></g><path id="F5" fill-rule="evenodd" class="shp0" d="M48.33 48.99v12.97h11.71v3.96H48.33V83h-4.72V45.03H61.4v3.96H48.33zM77.07 83h-.97c-6.51 0-9.22-2.6-9.22-8.57v-4.56c0-3.25 1.25-5.42 3.52-6.67-1.84-1.3-2.87-3.41-2.87-6.29V53.5c0-5.97 3.36-8.47 8.79-8.47h.54c5.42 0 8.78 2.5 8.78 8.47v3.41c0 2.88-1.03 4.99-2.87 6.29 2.28 1.25 3.52 3.42 3.52 6.67v4.56c0 5.97-2.71 8.57-9.22 8.57zm.55-17.52h-2.06c-2.34 0-3.96 1.52-3.96 3.91v5.58c0 2.66 1.08 3.96 3.58 3.96h2.38c2.77 0 4.02-1.19 4.02-3.96v-5.58c0-2.39-1.63-3.91-3.96-3.91zM75.66 49.1c-2.44 0-3.41 1.36-3.41 3.91v4.44c0 2.34 1.52 3.86 3.52 3.96h1.3c2.17 0 3.86-1.51 3.86-3.96v-4.44c0-2.77-1.14-3.91-3.86-3.91h-1.41z"/></g></svg>