<svg version="1.2" baseProfile="tiny-ps" xmlns="http://www.w3.org/2000/svg" viewBox="0 0 640 640" width="640" height="640">
	<title>shift-svg</title>
	<style>
		tspan { white-space:pre }
		.shp0 { fill: #000000 } 
	</style>
	<g id="Folder 2">
		<g id="Folder 1">
			<path id="Shape 1" class="shp0" d="M133 299L113.9 299C113.9 299 113.9 249.17 113.9 191.5C113.9 157.14 151.73 107 207 107C263.02 107 305 108 305 108L305 126.11C305 126.11 245.01 125 207.5 125C173.38 125 134 158.42 134 191C134 197.42 133 299 133 299Z" />
			<path id="Shape 1 copy" class="shp0" d="M508 299L527.1 299C527.1 299 527.1 249.17 527.1 191.5C527.1 157.14 495.27 107 440 107C383.98 107 303.79 108 303.79 108L303 126.11C303 126.11 410.4 125 439.5 125C473.62 125 507 158.42 507 191C507 197.42 508 299 508 299Z" />
			<path id="Shape 1 copy 2" class="shp0" d="M132.1 297L113 297C113 297 113 389.83 113 447.5C113 481.86 150.83 532 206.1 532C262.12 532 304.1 531 304.1 531L304.1 512.89C304.1 512.89 244.11 514 206.6 514C172.48 514 133.1 480.58 133.1 448C133.1 441.58 132.1 297 132.1 297Z" />
			<path id="Shape 1 copy 3" class="shp0" d="M507.1 298L526.21 298C526.21 298 526.21 389.83 526.21 447.5C526.21 481.86 494.38 532 439.1 532C383.09 532 302.89 531 302.89 531L302.1 512.89C302.1 512.89 409.5 514 438.6 514C472.73 514 506.1 480.58 506.1 448C506.1 441.58 507.1 298 507.1 298Z" />
		</g>
		<path id="F5 " fill="#000000" aria-label="F8"  d="M307 244.97L307 225.17L218.05 225.17L218.05 415L241.64 415L241.64 329.58L300.22 329.58L300.22 309.78L241.64 309.78L241.64 244.97ZM431.47 372.15L431.47 349.37C431.47 333.1 425.24 322.25 413.85 316.02C423.07 309.51 428.22 298.93 428.22 284.56L428.22 267.48C428.22 237.65 411.41 225.17 384.29 225.17L381.58 225.17C354.46 225.17 337.64 237.65 337.64 267.48L337.64 284.56C337.64 298.93 342.8 309.51 352.02 316.02C340.63 322.25 334.39 333.1 334.39 349.37L334.39 372.15C334.39 401.98 347.95 415 380.49 415L385.37 415C417.91 415 431.47 401.98 431.47 372.15ZM407.88 346.93L407.88 374.86C407.88 388.7 401.64 394.66 387.81 394.66L375.88 394.66C363.41 394.66 357.98 388.15 357.98 374.86L357.98 346.93C357.98 335 366.12 327.41 377.78 327.41L388.08 327.41C399.74 327.41 407.88 335 407.88 346.93ZM385.37 245.51C398.93 245.51 404.63 251.2 404.63 265.03L404.63 287.27C404.63 299.48 396.22 307.07 385.37 307.07L378.86 307.07C368.83 306.53 361.24 298.93 361.24 287.27L361.24 265.03C361.24 252.29 366.12 245.51 378.32 245.51Z" />
	</g>
</svg>