<?xml version="1.0" encoding="UTF-8" standalone="no"?>
<!DOCTYPE svg PUBLIC "-//W3C//DTD SVG 1.1//EN" "http://www.w3.org/Graphics/SVG/1.1/DTD/svg11.dtd">
<svg version="1.1" xmlns="http://www.w3.org/2000/svg" xmlns:xlink="http://www.w3.org/1999/xlink" preserveAspectRatio="xMidYMid meet" viewBox="0 0 640 640" width="640" height="640"><defs><path d="M439.52 108.04C477.06 108.04 507.5 138.47 507.5 176.02C507.5 240.02 507.5 357.26 507.5 419.57C507.5 461.8 473.26 496.04 431.03 496.04C371.33 496.04 264.71 496.04 204.02 496.04C164.52 496.04 132.5 464.02 132.5 424.52C132.5 361.22 132.5 245.68 132.5 183.09C132.5 141.64 166.1 108.04 207.55 108.04C267.54 108.04 378.11 108.04 439.52 108.04Z" id="c2OL5KwjUK"></path><clipPath id="clipaGcWUxBty"><use xlink:href="#c2OL5KwjUK" opacity="1"></use></clipPath><path d="M366 349.57L282 268.04L198 349.57L251.25 349.57L251.25 416.04L312.89 416.04L312.89 349.57L366 349.57Z" id="i5MOx8YLhh"></path></defs><g><g><g><g clip-path="url(#clipaGcWUxBty)"><use xlink:href="#c2OL5KwjUK" opacity="1" fill-opacity="0" stroke="#000000" stroke-width="52" stroke-opacity="1"></use></g></g><g><use xlink:href="#i5MOx8YLhh" opacity="1" fill="#000000" fill-opacity="1"></use></g></g></g></svg>